<?xml version="1.0" encoding="utf-8"?>
<!-- Generator: Adobe Illustrator 24.1.0, SVG Export Plug-In . SVG Version: 6.00 Build 0)  -->
<svg version="1.1" id="Layer_1" xmlns="http://www.w3.org/2000/svg" xmlns:xlink="http://www.w3.org/1999/xlink" x="0px" y="0px"
	 viewBox="0 0 180 56" style="enable-background:new 0 0 180 56;" xml:space="preserve">
<style type="text/css">
	.st0{fill:#F0EFEF;}
</style>
<g>
	<path class="st0" d="M149,55.2h-40.4c-0.2-8.7-3.7-14.2-6.6-17.4c-2.7-2.9-5.3-4.3-6.2-4.7l-0.2-1.5l-0.2-0.1
		c-0.3-0.2-1.1-0.8-1.1-1.4c0-0.8-0.6-1.5-1.1-1.8c0.3-0.4,0.7-1,0.6-1.8l0-0.1l0-0.1c0-0.1-0.6-1.3-1.6-1.8
		c0.2-0.3,0.4-0.7,0.4-1.2c0,0,0-0.5-0.3-0.8c-0.2-0.2-0.4-0.3-0.7-0.4V19h1.7c0.2,0,0.4-0.2,0.4-0.4c0-0.2-0.2-0.4-0.4-0.4h-1.7
		v-1.7c0-0.2-0.2-0.4-0.4-0.4h0h0c-0.2,0-0.4,0.2-0.4,0.4v1.7H89c-0.2,0-0.4,0.2-0.4,0.4c0,0.2,0.2,0.4,0.4,0.4h1.7v3.2
		c-0.3,0.1-0.5,0.2-0.7,0.4c-0.3,0.3-0.3,0.8-0.3,0.8c0,0.6,0.2,1,0.4,1.2c-1,0.5-1.5,1.7-1.6,1.8l0,0.1l0,0.1
		c-0.1,0.8,0.3,1.4,0.6,1.8c-0.5,0.3-1.2,0.9-1.1,1.8c0,0.6-0.8,1.2-1.1,1.4l-0.2,0.1l-0.2,1.6c-3.5,1.8-6,4.3-7.8,6.8
		c-0.6-0.8-1.2-1.6-1.8-2.2c-2.6-2.8-5.1-4.2-6.1-4.6c0-0.3,0-2.3-0.6-3.5c-0.1-0.1-0.1-0.2-0.2-0.4c-0.6-1.1-1.5-2.8-1.6-3.8
		c0-0.9,0-2.8,0-3.6c0.2,0,0.4-0.1,0.6-0.3c0.2-0.2,0.4-0.5,0.4-1c0,0,0-0.5-0.3-0.9c-0.2-0.2-0.6-0.4-1-0.5c-0.1-1.1-0.7-4-4.3-5.8
		c0.2-0.2,0.4-0.6,0.4-1v0l0,0c-0.1-0.3-0.3-0.8-0.9-1l0-3l1.6,0h0c0.2,0,0.4-0.2,0.4-0.4c0-0.2-0.2-0.4-0.4-0.4l-1.6,0l0-0.7l0-1.1
		c0-0.2-0.2-0.4-0.4-0.4h0h0h0c-0.2,0-0.4,0.2-0.4,0.4l0,1.1l0,0.7l-1.6,0c-0.2,0-0.4,0.2-0.4,0.4c0,0.2,0.2,0.4,0.4,0.4h0l1.6,0
		l0,3c-0.6,0.2-0.8,0.7-0.9,1l0,0v0c0,0.4,0.2,0.8,0.4,1l-0.1,0l0,0c-3.6,1.8-4.2,4.8-4.3,5.8c-0.4,0.1-0.7,0.2-1,0.5
		c-0.4,0.4-0.4,0.8-0.4,0.9c0,0.6,0.2,0.9,0.4,1.1c0.2,0.2,0.4,0.3,0.6,0.3c0,0.8,0,2.6,0,3.6c0,1-1,2.7-1.6,3.8
		c-0.1,0.1-0.1,0.2-0.2,0.4c-0.5,1-0.6,2.7-0.6,3.3c-2,1.2-3.6,2.5-5,3.8c-0.9-1.6-1.9-3-3.1-4.3c-3.2-3.5-6.6-4.8-7.4-5
		c0-0.5-0.2-1.6-0.6-2.5c-0.3-0.6-0.9-0.9-1.4-1.1c-0.5-0.2-0.7-0.4-0.7-0.6v-5.4h0c0.2,0,0.7,0,1-0.3c0.2-0.2,0.3-0.4,0.3-0.6v-0.9
		l0-0.1c-0.1-0.3-0.5-0.8-1.4-0.8h-0.3c-0.1-0.5-0.3-1.6-0.9-2.7c-0.7-1.3-2.1-3-4.7-3.9C30.9,8.3,31,8,31,7.6l0,0l0,0
		c-0.1-0.3-0.4-0.9-1-1.1V3l1.7,0c0.2,0,0.4-0.2,0.4-0.4c0-0.2-0.2-0.4-0.4-0.4l-1.7,0V0.4c0-0.2-0.2-0.4-0.4-0.4
		c-0.2,0-0.4,0.2-0.4,0.4v1.8l-1.7,0c-0.2,0-0.4,0.2-0.4,0.4c0,0.2,0.2,0.4,0.4,0.4l1.7,0v3.3c-0.6,0.2-0.9,0.8-1,1.1l0,0l0,0
		c0,0.4,0.1,0.8,0.3,1c-2.6,0.9-4,2.6-4.7,3.9c-0.6,1.1-0.8,2.1-0.9,2.7h-0.3c-0.9,0-1.3,0.5-1.4,0.8l0,0.1V17
		c0,0.3,0.1,0.5,0.3,0.7c0.2,0.2,0.5,0.2,0.7,0.3c0,1.2,0,4.6,0,5.4c0,0.2-0.2,0.4-0.7,0.6c-0.5,0.2-1.1,0.5-1.4,1.1
		c-0.4,0.8-0.5,2-0.6,2.5c-3.3,1.2-6.1,3.4-8.3,6.5c-1.8,2.5-3.3,5.7-4.3,9.4c-1.5,5.4-1.7,10.3-1.7,11.7h-5c-0.2,0-0.4,0.2-0.4,0.4
		C0,55.8,0.2,56,0.4,56h5.8l0-0.4c0-0.1,0-5.7,1.7-11.9c1-3.6,2.4-6.7,4.2-9.2c2.2-3,4.9-5.2,8.1-6.3H39c0.4,0.1,3.9,1.2,7.2,4.9
		c1.2,1.3,2.2,2.7,3.1,4.3c-3.1,3.3-4.7,6.9-5.6,9.8c-1.4,4.7-1.2,8.3-1.2,8.5l0,0.4h11.1l0-0.4c0.2-5.5-0.4-10.3-1.9-14.5
		c-0.4-1.3-1-2.5-1.5-3.6c1.4-1.4,3.1-2.8,5.1-3.9L70,33.7c0.5,0.2,3.4,1.6,6.2,4.6c0.6,0.7,1.2,1.4,1.8,2.3c-1.5,2.2-2.4,4.4-3,6.3
		c-1.5,4.7-1.3,8.5-1.3,8.6l0,0.4h9.1l0-0.4c0.2-6.7-1.7-11.6-3.9-14.9c1.8-2.5,4.3-5,7.8-6.8l8.3-0.1c0.1,0.1,0.2,0.1,0.3,0.1
		c0,0,0,0,0.1,0c0,0,0,0,0,0c0.9,0.4,3.4,1.8,5.9,4.5c2.9,3.1,6.3,8.6,6.4,17.2l0,0.4H149c0.2,0,0.4-0.2,0.4-0.4
		C149.4,55.4,149.2,55.2,149,55.2z M29.6,7.1L29.6,7.1l0.2,0c0.3,0,0.5,0.4,0.5,0.5c0,0.3-0.1,0.5-0.2,0.6c-0.1,0.1-0.3,0.1-0.3,0.1
		l-0.1,0.3l-0.1-0.3c0,0-0.2,0-0.3-0.1c-0.1-0.1-0.2-0.3-0.2-0.6C29.1,7.5,29.2,7.1,29.6,7.1z M22.4,17.1L22.4,17.1
		c-0.1,0-0.2,0-0.2-0.1c0,0,0,0,0-0.1v-0.8c0.1-0.1,0.2-0.2,0.6-0.2h1l0-0.4c0-0.2,0.3-5.1,5.9-6.5c5.6,1.5,5.8,6.3,5.9,6.5l0,0.4h1
		c0.4,0,0.6,0.2,0.6,0.2V17c0,0,0,0.1,0,0.1c-0.1,0.1-0.4,0.1-0.5,0.1v0H22.4z M20.5,27.4c0-0.5,0.2-1.4,0.5-2
		c0.2-0.4,0.6-0.6,1-0.8c0.5-0.3,1.1-0.6,1.2-1.3c0-0.8,0-4.2,0-5.4h12.7v5.3v0.1c0,0.7,0.6,1,1.2,1.3c0.4,0.2,0.8,0.4,1,0.8
		c0.3,0.6,0.4,1.5,0.5,2H20.5z M51,41.4c1.4,4,2,8.6,1.8,13.8h-9.6c0-1,0-4.1,1.1-7.8c0.8-2.7,2.4-6.1,5.2-9.2
		C50.1,39.2,50.6,40.2,51,41.4z M62.7,12L62.7,12c0.4,0,0.5,0.3,0.6,0.4c0,0.5-0.4,0.7-0.5,0.7l-0.1,0l0,0c0,0-0.4-0.2-0.5-0.7
		C62.2,12.3,62.3,12,62.7,12z M57.1,21c-0.1-0.1-0.2-0.3-0.2-0.5c0,0,0-0.2,0.1-0.3c0.1-0.1,0.4-0.2,0.8-0.2h0.4l0-0.4
		c0,0-0.1-3.8,4.5-5.8l0,0l0,0c4.5,1.9,4.5,5.6,4.5,5.8l0,0.4h0.4c0.4,0,0.6,0.1,0.8,0.2c0.1,0.1,0.1,0.3,0.1,0.3
		c0,0.2-0.1,0.4-0.2,0.5c-0.2,0.2-0.4,0.2-0.4,0.2l-0.4,0v0h-9.6v0l-0.4,0C57.5,21.2,57.3,21.2,57.1,21z M55.6,32.8
		c0-0.7,0.1-2,0.5-2.7c0.1-0.1,0.1-0.2,0.2-0.4c0.7-1.3,1.6-3,1.7-4.2c0-0.9,0-2.7,0-3.5h9.5c0,0.8,0,2.6,0,3.5c0,1.2,1,2.9,1.7,4.2
		c0.1,0.1,0.1,0.3,0.2,0.4c0.4,0.8,0.5,2.3,0.5,2.9L55.6,32.8z M82.1,55.2h-7.6c0-1.1,0.1-4.3,1.3-8c0.6-1.8,1.4-3.8,2.7-5.8
		C80.5,44.6,82.2,49.1,82.1,55.2z M91.1,23L91.1,23L91.1,23c0.6,0,0.7,0.3,0.7,0.4c0,0.9-0.5,1-0.6,1h0h0c-0.1,0-0.6-0.1-0.6-1
		C90.4,23.3,90.5,23,91.1,23z M87.2,33.1l0.1-0.9c0.4-0.3,1.4-1,1.3-2c0-0.6,0.8-1.2,1.2-1.3l0.6-0.3l-0.6-0.4c0,0-0.7-0.5-0.7-1.4
		c0.1-0.3,0.8-1.5,1.8-1.5h0h0.1l0-0.1v0.1h0.1h0c1,0,1.7,1.2,1.8,1.5c0,0.9-0.7,1.4-0.7,1.4l-0.6,0.4l0.6,0.3
		c0.3,0.2,1.2,0.7,1.2,1.3c0,1,0.9,1.8,1.3,2L95,33L87.2,33.1z"/>
	<path class="st0" d="M113.9,53.1c0.3-0.2,0.6-0.4,0.8-0.7c0.2-0.3,0.3-0.7,0.4-1.2c0.1-0.5,0.1-1,0.1-1.7c0-0.5,0-1-0.1-1.5
		c-0.1-0.4-0.2-0.8-0.4-1.1c-0.2-0.3-0.4-0.6-0.7-0.7c-0.3-0.2-0.7-0.3-1.2-0.3h-2.4v7.3h2.3C113.2,53.3,113.6,53.2,113.9,53.1z
		 M111.9,52.2v-5.2h0.6c0.3,0,0.5,0.1,0.7,0.2c0.2,0.1,0.3,0.3,0.4,0.5c0.1,0.2,0.1,0.5,0.2,0.8c0,0.3,0,0.7,0,1.1
		c0,0.5,0,0.9,0,1.3c0,0.3-0.1,0.6-0.2,0.8c-0.1,0.2-0.2,0.4-0.4,0.4c-0.2,0.1-0.4,0.1-0.6,0.1H111.9z"/>
	<rect x="116.2" y="45.9" class="st0" width="1.4" height="1.2"/>
	<rect x="116.2" y="47.8" class="st0" width="1.4" height="5.5"/>
	<path class="st0" d="M118.9,52.7c0.2,0.2,0.4,0.4,0.7,0.5c0.3,0.1,0.6,0.2,1.1,0.2c0.4,0,0.7-0.1,1-0.2c0.3-0.1,0.5-0.3,0.7-0.5
		c0.2-0.2,0.3-0.5,0.4-0.9c0.1-0.4,0.1-0.8,0.1-1.3c0-0.5,0-0.9-0.1-1.3c-0.1-0.4-0.2-0.7-0.3-0.9c-0.2-0.2-0.4-0.4-0.7-0.6
		c-0.3-0.1-0.6-0.2-1.1-0.2c-0.4,0-0.7,0.1-1,0.2c-0.3,0.1-0.5,0.3-0.7,0.6c-0.2,0.2-0.3,0.5-0.4,0.9c-0.1,0.4-0.1,0.8-0.1,1.3
		c0,0.5,0,0.9,0.1,1.3C118.6,52.2,118.7,52.5,118.9,52.7z M119.9,49.8c0-0.2,0-0.4,0.1-0.6c0.1-0.2,0.1-0.3,0.2-0.4
		c0.1-0.1,0.2-0.1,0.4-0.1c0.3,0,0.5,0.2,0.6,0.5c0.1,0.3,0.2,0.8,0.2,1.5c0,0.7-0.1,1.2-0.2,1.5c-0.1,0.3-0.3,0.5-0.6,0.5
		c-0.2,0-0.3,0-0.4-0.1c-0.1-0.1-0.2-0.2-0.2-0.4c-0.1-0.2-0.1-0.4-0.1-0.6c0-0.2,0-0.5,0-0.8C119.8,50.3,119.8,50,119.9,49.8z"/>
	<path class="st0" d="M123.8,52.8c0.2,0.2,0.4,0.4,0.7,0.5c0.3,0.1,0.6,0.1,0.9,0.1c0.7,0,1.3-0.2,1.6-0.6c0.3-0.4,0.5-0.9,0.5-1.7
		h-1.3c0,0.5-0.1,0.8-0.2,1c-0.1,0.2-0.3,0.3-0.5,0.3c-0.2,0-0.3,0-0.4-0.1c-0.1-0.1-0.2-0.2-0.2-0.3c-0.1-0.2-0.1-0.4-0.1-0.6
		c0-0.2,0-0.5,0-0.9c0-0.3,0-0.6,0-0.8c0-0.2,0.1-0.4,0.1-0.6c0.1-0.2,0.1-0.3,0.2-0.3s0.2-0.1,0.4-0.1c0.1,0,0.2,0,0.3,0.1
		c0.1,0.1,0.1,0.1,0.2,0.3c0,0.1,0.1,0.2,0.1,0.4c0,0.1,0,0.3,0,0.4h1.3c0-0.7-0.2-1.2-0.5-1.6c-0.3-0.4-0.8-0.6-1.5-0.6
		c-0.3,0-0.6,0-0.9,0.1c-0.3,0.1-0.5,0.2-0.7,0.5c-0.2,0.2-0.4,0.5-0.5,0.9c-0.1,0.4-0.2,0.8-0.2,1.4c0,0.6,0,1,0.1,1.4
		C123.5,52.3,123.7,52.6,123.8,52.8z"/>
	<path class="st0" d="M128.3,52.5c0.1,0.3,0.3,0.5,0.6,0.7c0.3,0.2,0.7,0.3,1.2,0.3c0.7,0,1.2-0.2,1.5-0.5c0.3-0.3,0.5-0.8,0.5-1.5
		h-1.3c0,0.3-0.1,0.6-0.2,0.8c-0.1,0.2-0.3,0.3-0.5,0.3c-0.1,0-0.2,0-0.3-0.1c-0.1-0.1-0.2-0.2-0.2-0.3c-0.1-0.1-0.1-0.3-0.1-0.4
		c0-0.2,0-0.3,0-0.5v-0.4h2.8v-0.3c0-0.4,0-0.8-0.1-1.2c-0.1-0.3-0.2-0.6-0.3-0.9c-0.2-0.2-0.4-0.4-0.6-0.6c-0.3-0.1-0.6-0.2-1-0.2
		c-0.5,0-0.9,0.1-1.1,0.2c-0.3,0.2-0.5,0.4-0.7,0.6c-0.2,0.3-0.3,0.6-0.3,0.9c0,0.3-0.1,0.7-0.1,1.1c0,0.3,0,0.7,0,1
		C128.1,51.9,128.2,52.2,128.3,52.5z M129.4,49.7c0-0.1,0-0.3,0-0.4c0-0.1,0.1-0.2,0.1-0.4c0.1-0.1,0.1-0.2,0.2-0.3
		c0.1-0.1,0.2-0.1,0.4-0.1s0.3,0,0.4,0.1c0.1,0.1,0.2,0.1,0.2,0.3c0.1,0.1,0.1,0.3,0.1,0.4c0,0.2,0,0.3,0,0.6h-1.4V49.7z"/>
	<path class="st0" d="M133.2,53c0.2,0.2,0.4,0.3,0.6,0.3c0.3,0.1,0.6,0.1,1,0.1c0.3,0,0.6,0,0.8-0.1c0.3-0.1,0.5-0.2,0.6-0.3
		c0.2-0.1,0.3-0.3,0.4-0.5c0.1-0.2,0.2-0.5,0.2-0.8c0-0.4-0.1-0.7-0.3-1c-0.2-0.2-0.5-0.4-0.9-0.6l-0.9-0.3
		c-0.2-0.1-0.4-0.2-0.5-0.3c-0.1-0.1-0.1-0.2-0.1-0.4c0-0.2,0.1-0.3,0.2-0.4c0.1-0.1,0.3-0.1,0.5-0.1c0.2,0,0.4,0.1,0.5,0.2
		c0.1,0.1,0.1,0.3,0.1,0.6h1.3v-0.2c0-0.5-0.2-0.9-0.5-1.2c-0.3-0.3-0.8-0.4-1.4-0.4c-0.4,0-0.7,0-0.9,0.1c-0.3,0.1-0.5,0.2-0.6,0.4
		c-0.2,0.2-0.3,0.3-0.4,0.5c-0.1,0.2-0.1,0.4-0.1,0.6c0,0.4,0.1,0.7,0.3,1c0.2,0.2,0.5,0.4,0.9,0.6l1,0.4c0.1,0.1,0.3,0.1,0.4,0.2
		c0.1,0.1,0.2,0.2,0.2,0.4c0,0.2-0.1,0.4-0.2,0.5c-0.1,0.1-0.3,0.2-0.5,0.2c-0.2,0-0.4-0.1-0.5-0.2c-0.1-0.1-0.2-0.3-0.2-0.6v-0.2
		h-1.3v0.2c0,0.3,0,0.5,0.1,0.7C132.9,52.6,133,52.8,133.2,53z"/>
	<rect x="137.6" y="47.8" class="st0" width="1.4" height="5.5"/>
	<rect x="137.6" y="45.9" class="st0" width="1.4" height="1.2"/>
	<path class="st0" d="M144,53.4c0.3,0,0.5-0.1,0.7-0.2c0.2-0.1,0.4-0.3,0.5-0.5h0v0.6h1.3V46h-1.4v2.3h0c-0.1-0.2-0.3-0.4-0.5-0.5
		c-0.2-0.1-0.4-0.2-0.7-0.2c-0.6,0-1,0.2-1.3,0.7c-0.3,0.5-0.4,1.2-0.4,2.2c0,1,0.1,1.8,0.4,2.2C143,53.2,143.4,53.4,144,53.4z
		 M143.8,49.2c0.1-0.3,0.3-0.5,0.6-0.5c0.3,0,0.5,0.2,0.6,0.5c0.1,0.3,0.1,0.8,0.1,1.4c0,0.6,0,1.1-0.1,1.4
		c-0.1,0.3-0.3,0.5-0.6,0.5c-0.3,0-0.5-0.2-0.6-0.5c-0.1-0.3-0.1-0.8-0.1-1.4C143.7,50,143.7,49.5,143.8,49.2z"/>
	<rect x="147.6" y="45.9" class="st0" width="1.4" height="1.2"/>
	<rect x="147.6" y="47.8" class="st0" width="1.4" height="5.5"/>
	<polygon class="st0" points="156.4,46 151.7,46 151.7,47.2 153.3,47.2 153.3,53.3 154.8,53.3 154.8,47.2 156.4,47.2 	"/>
	<path class="st0" d="M158.8,47.7c-0.3,0-0.5,0.1-0.7,0.2c-0.2,0.2-0.4,0.4-0.5,0.6h0v-0.7h-1.3v5.5h1.4V50c0-0.2,0-0.3,0.1-0.5
		c0.1-0.1,0.1-0.2,0.2-0.3c0.1-0.1,0.2-0.1,0.3-0.2c0.1,0,0.2,0,0.4,0c0.1,0,0.1,0,0.2,0c0.1,0,0.1,0,0.2,0v-1.4c0,0-0.1,0-0.1,0
		C158.9,47.7,158.9,47.7,158.8,47.7z"/>
	<path class="st0" d="M163.2,48.4c-0.2-0.2-0.4-0.4-0.6-0.6c-0.3-0.1-0.6-0.2-1-0.2c-0.5,0-0.9,0.1-1.1,0.2
		c-0.3,0.2-0.5,0.4-0.7,0.6c-0.2,0.3-0.3,0.6-0.3,0.9c0,0.3-0.1,0.7-0.1,1.1c0,0.3,0,0.7,0,1c0,0.4,0.1,0.7,0.3,0.9
		c0.1,0.3,0.3,0.5,0.6,0.7c0.3,0.2,0.7,0.3,1.2,0.3c0.7,0,1.2-0.2,1.5-0.5c0.3-0.3,0.5-0.8,0.5-1.5h-1.3c0,0.3-0.1,0.6-0.2,0.8
		c-0.1,0.2-0.3,0.3-0.5,0.3c-0.1,0-0.2,0-0.3-0.1c-0.1-0.1-0.2-0.2-0.2-0.3c-0.1-0.1-0.1-0.3-0.1-0.4c0-0.2,0-0.3,0-0.5v-0.4h2.8
		v-0.3c0-0.4,0-0.8-0.1-1.2C163.5,49,163.4,48.7,163.2,48.4z M160.8,49.9v-0.2c0-0.1,0-0.3,0-0.4c0-0.1,0.1-0.2,0.1-0.4
		c0.1-0.1,0.1-0.2,0.2-0.3c0.1-0.1,0.2-0.1,0.4-0.1c0.1,0,0.3,0,0.4,0.1c0.1,0.1,0.2,0.1,0.2,0.3c0.1,0.1,0.1,0.3,0.1,0.4
		c0,0.2,0,0.3,0,0.6H160.8z"/>
	<polygon class="st0" points="166.2,51.7 166.2,51.7 165.4,47.8 163.9,47.8 165.3,53.3 167,53.3 168.3,47.8 166.9,47.8 	"/>
	<rect x="168.9" y="45.9" class="st0" width="1.4" height="1.2"/>
	<rect x="168.9" y="47.8" class="st0" width="1.4" height="5.5"/>
	<path class="st0" d="M173.9,50.1l-0.9-0.3c-0.2-0.1-0.4-0.2-0.5-0.3c-0.1-0.1-0.1-0.2-0.1-0.4c0-0.2,0.1-0.3,0.2-0.4
		c0.1-0.1,0.3-0.1,0.5-0.1c0.2,0,0.4,0.1,0.5,0.2c0.1,0.1,0.1,0.3,0.1,0.6h1.3v-0.2c0-0.5-0.2-0.9-0.5-1.2c-0.3-0.3-0.8-0.4-1.4-0.4
		c-0.4,0-0.7,0-0.9,0.1c-0.3,0.1-0.5,0.2-0.6,0.4c-0.2,0.2-0.3,0.3-0.4,0.5c-0.1,0.2-0.1,0.4-0.1,0.6c0,0.4,0.1,0.7,0.3,1
		c0.2,0.2,0.5,0.4,0.9,0.6l1,0.4c0.1,0.1,0.3,0.1,0.4,0.2c0.1,0.1,0.2,0.2,0.2,0.4c0,0.2-0.1,0.4-0.2,0.5c-0.1,0.1-0.3,0.2-0.5,0.2
		c-0.2,0-0.4-0.1-0.5-0.2c-0.1-0.1-0.2-0.3-0.2-0.6v-0.2h-1.3v0.2c0,0.3,0,0.5,0.1,0.7c0.1,0.2,0.2,0.4,0.3,0.6
		c0.2,0.2,0.4,0.3,0.6,0.3c0.3,0.1,0.6,0.1,1,0.1c0.3,0,0.6,0,0.8-0.1c0.3-0.1,0.5-0.2,0.6-0.3c0.2-0.1,0.3-0.3,0.4-0.5
		c0.1-0.2,0.2-0.5,0.2-0.8c0-0.4-0.1-0.7-0.3-1C174.7,50.5,174.4,50.3,173.9,50.1z"/>
	<path class="st0" d="M179.9,49.3c-0.1-0.4-0.2-0.7-0.3-0.9c-0.2-0.2-0.4-0.4-0.7-0.6c-0.3-0.1-0.6-0.2-1.1-0.2
		c-0.4,0-0.7,0.1-1,0.2c-0.3,0.1-0.5,0.3-0.7,0.6c-0.2,0.2-0.3,0.5-0.4,0.9c-0.1,0.4-0.1,0.8-0.1,1.3c0,0.5,0,0.9,0.1,1.3
		c0.1,0.4,0.2,0.7,0.3,0.9c0.2,0.2,0.4,0.4,0.7,0.5c0.3,0.1,0.6,0.2,1.1,0.2c0.4,0,0.7-0.1,1-0.2c0.3-0.1,0.5-0.3,0.7-0.5
		c0.2-0.2,0.3-0.5,0.4-0.9c0.1-0.4,0.1-0.8,0.1-1.3C180,50.1,180,49.6,179.9,49.3z M178.4,52c-0.1,0.3-0.3,0.5-0.6,0.5
		c-0.2,0-0.3,0-0.4-0.1c-0.1-0.1-0.2-0.2-0.2-0.4c-0.1-0.2-0.1-0.4-0.1-0.6c0-0.2,0-0.5,0-0.8c0-0.3,0-0.5,0-0.8
		c0-0.2,0-0.4,0.1-0.6c0.1-0.2,0.1-0.3,0.2-0.4c0.1-0.1,0.2-0.1,0.4-0.1c0.3,0,0.5,0.2,0.6,0.5c0.1,0.3,0.2,0.8,0.2,1.5
		C178.6,51.2,178.5,51.7,178.4,52z"/>
</g>
</svg>
