<?xml version="1.0" encoding="utf-8"?>
<!-- Generator: Adobe Illustrator 24.1.0, SVG Export Plug-In . SVG Version: 6.00 Build 0)  -->
<svg version="1.1" id="Layer_1" xmlns="http://www.w3.org/2000/svg" xmlns:xlink="http://www.w3.org/1999/xlink" x="0px" y="0px"
	 viewBox="0 0 180 60" style="enable-background:new 0 0 180 60;" xml:space="preserve">
<style type="text/css">
	.st0{fill:#F0EFEF;}
</style>
<g>
	<path class="st0" d="M45.7,22.3c8.1,1.2,14.6-4.8,11-10.7C52.8,14.9,48.2,17.5,45.7,22.3z"/>
	<path class="st0" d="M38.4,21.8c0.9,0.8,3,0.3,4.6,0.4c1.8-5.8,14.8-9.1,8.3-16C47.7,12.2,39.5,13.6,38.4,21.8z"/>
	<path class="st0" d="M45.3,3.1c-2.9,3.3-9.2,5.7-6.4,12.9C40.9,12.3,51.9,8.1,45.3,3.1z"/>
	<path class="st0" d="M38.9,44.2c-1.3,7.8,5,14.2,11,10.7C46.5,51,43.8,46.5,38.9,44.2z"/>
	<path class="st0" d="M39.4,37.1c-0.8,0.8-0.3,2.9-0.5,4.4c6,1.7,9.4,14.3,16.5,8C49.3,46.1,47.9,38.1,39.4,37.1z"/>
	<path class="st0" d="M45.3,37.5c3.8,2,8.1,12.6,13.3,6.2C55.3,40.9,52.8,34.9,45.3,37.5z"/>
	<path class="st0" d="M16.1,37.2C8,36,1.5,42,5.1,47.9C9,44.6,13.6,42,16.1,37.2z"/>
	<path class="st0" d="M23.4,37.7c-0.9-0.8-3-0.3-4.6-0.4c-1.8,5.8-14.8,9.1-8.3,16C14.1,47.3,22.3,45.9,23.4,37.7z"/>
	<path class="st0" d="M16.6,56.3c2.9-3.3,9.2-5.7,6.4-12.9C20.9,47.2,10,51.3,16.6,56.3z"/>
	<polygon class="st0" points="36.8,0 25,0 25,24.2 0,24.2 0,35.8 25,35.8 25,60 36.8,60 36.8,35.8 62,35.8 62,24.2 36.8,24.2 	"/>
	<path class="st0" d="M23.3,15.7c1.3-7.8-5-14.2-11-10.7C15.7,8.8,18.4,13.3,23.3,15.7z"/>
	<path class="st0" d="M22.8,22.8c0.8-0.8,0.3-2.9,0.5-4.4c-6-1.7-9.4-14.3-16.5-8C12.9,13.7,14.3,21.7,22.8,22.8z"/>
	<path class="st0" d="M16.8,22.3c-3.8-2-8.1-12.6-13.3-6.2C6.9,18.9,9.4,25,16.8,22.3z"/>
	<path class="st0" d="M71.6,30c0.9,1.2,2.1,2.4,3.7,3.4c1.1,0.7,2.3,1.3,3.8,1.6c1.5,0.3,3.1,0.5,4.7,0.5c2.2,0,4-0.2,5.5-0.5
		c1.5-0.3,2.7-0.9,3.5-1.5l0.3-1l0.2-0.7c0.3-1.6,0.4-2.5,0.5-2.8c0.1-0.6,0.2-1.2,0.3-1.7c-0.8,0-1.5,0.1-2,0.2
		c-1.3,2-2.6,3.4-4,4.4c-1.4,1-2.8,1.5-4.3,1.5c-1.4,0-2.6-0.3-3.8-1c-0.9-0.5-1.7-1.1-2.2-1.9c-0.7-1.1-1.4-2.5-1.9-4.2
		c-0.3-1-0.5-2.8-0.5-5.3c0-4.2,0.9-7.6,2.6-9.9c1.3-1.8,3-2.6,5.1-2.6c1.7,0,3.3,0.4,4.7,1.3c1.4,0.9,2.7,2.3,4,4.3h1.9
		c0-1-0.1-2-0.4-3c-0.5-2-0.9-3.3-1.1-3.7C90.8,7,89.4,6.7,88,6.5c-1.5-0.2-3.1-0.3-4.8-0.3c-4.1,0-7.6,1.4-10.2,4.2
		c-2.7,2.8-4,6.4-4,10.7c0,1.8,0.2,3.4,0.6,4.8C70,27.5,70.7,28.8,71.6,30z"/>
	<path class="st0" d="M113.7,31.7c0-0.1-0.1-0.3-0.2-0.4L113,31l-0.4,0.2l-0.6,1c-0.1,0.1-0.2,0.1-0.4,0.1c-0.2,0-0.4-0.1-0.6-0.3
		c-0.1-0.2-0.2-0.6-0.2-1.3v-0.7l0-2.6l0-3.6c0-2.2-0.2-3.7-0.5-4.6c-0.3-0.8-0.9-1.5-1.6-1.9c-0.8-0.4-1.7-0.6-2.8-0.6
		c-1.7,0-3.1,0.2-4.3,0.6c-0.9,0.3-1.8,0.9-2.8,1.7c-1,0.8-1.7,1.6-2.2,2.5c-0.3,0.6-0.5,1.3-0.5,2.1c0,0.3,0.1,0.6,0.3,0.7
		c0.4,0,1-0.2,1.8-0.6c0.2-0.1,0.5-0.3,1.1-0.5c0.5-0.2,0.9-0.5,1.1-0.7c0.1-0.1,0.2-0.5,0.3-1.1c0.1-0.9,0.3-1.5,0.5-1.8
		c0.3-0.4,0.7-0.8,1.2-1.1c0.6-0.3,1.2-0.4,1.9-0.4c0.7,0,1.2,0.2,1.4,0.7c0.5,0.7,0.7,2,0.7,4c0,0.6,0,1.1-0.1,1.7l-5.1,2.2
		c-0.9,0.4-1.4,0.7-1.5,0.7c-1,0.6-1.7,1.1-2.1,1.6c-0.4,0.5-0.8,1-1,1.5c-0.2,0.5-0.3,1-0.3,1.5c0,1,0.3,1.9,1,2.5
		c0.7,0.6,1.7,0.9,3.1,0.9c1.5,0,2.8-0.3,3.9-0.8c1.1-0.6,1.9-1.4,2.5-2.5c0.5,1.2,1,2,1.6,2.5c0.6,0.5,1.3,0.7,2.1,0.7
		c0.8,0,1.4-0.2,2-0.7c0.5-0.5,1-1.4,1.3-2.7L113.7,31.7z M106.2,31c-0.1,0.4-0.5,0.9-1.3,1.5c-0.5,0.5-1.2,0.7-1.9,0.7
		c-0.5,0-0.9-0.2-1.2-0.6c-0.4-0.4-0.5-0.9-0.5-1.5c0-0.7,0.1-1.3,0.4-1.8c0.4-0.7,1.1-1.3,2-1.9c1-0.6,1.8-1.1,2.6-1.4
		c0.1,0.6,0.1,1.3,0.1,1.9C106.4,29.6,106.3,30.6,106.2,31z"/>
	<path class="st0" d="M123.9,16.6c-0.6,0-1.1,0.2-1.6,0.5c-0.6,0.6-1,0.9-1.1,1.1c-0.3,0.4-0.7,1-1.2,2v-1.8v-1.3v-0.6
		c0-0.2,0-0.5-0.1-0.8l-1.4,0c-0.2,0.2-0.4,0.4-0.6,0.8c-0.4,0.6-1,1.2-1.8,1.8c-0.8,0.6-1.7,1-2.7,1.1l0,0.8
		c0.1,0.2,0.2,0.4,0.5,0.5c0.6,0.1,1,0.3,1.4,0.5c0.2,0.2,0.3,0.4,0.3,0.6c0.1,1.3,0.2,3.8,0.2,7.4c0,2-0.1,3.2-0.2,3.5
		c-0.6,0.4-1.3,0.7-2,0.9c-0.3,0.1-0.5,0.2-0.7,0.3c0,0.2-0.1,0.4-0.1,0.5c0,0.1,0,0.3,0.1,0.5c1.3-0.1,2-0.1,2.1-0.1h0.3
		c0.8-0.1,1.7-0.1,2.7-0.1l3.9,0.2h1.9c0.1-0.3,0.1-0.5,0.1-0.6c0-0.3-0.1-0.5-0.2-0.6c-0.1-0.1-0.5-0.2-1.1-0.3
		c-0.6-0.1-1.1-0.1-1.3-0.2c-0.3-0.1-0.5-0.2-0.7-0.4c-0.2-0.4-0.4-0.7-0.4-1.1c0-3.9-0.1-6.4-0.1-7.5l0-0.6c0-0.8,0.2-1.5,0.6-2.3
		c0.2-0.4,0.5-0.7,0.8-0.8l0.1,0c0.2,0,0.5,0.2,0.9,0.5c0.6,0.5,1.3,0.8,1.8,0.8c0.7,0,1.2-0.3,1.6-0.8c0.4-0.5,0.6-1.2,0.6-1.8
		c0-0.7-0.3-1.3-0.8-1.8C125.3,16.8,124.6,16.6,123.9,16.6z"/>
	<path class="st0" d="M134.9,33.2c-0.1-0.5-0.1-1.1-0.1-1.7l0.2-8.9c0-2.9,0-5.2-0.1-7h-1.4c-0.8,0.9-1.6,1.5-2.4,1.8
		c-1.1,0.5-2.3,0.8-3.7,0.9v1.2c1,0.1,1.7,0.2,2.1,0.4c0.4,0.2,0.7,0.3,0.8,0.6c0.1,0.5,0.1,1,0.1,1.4l-0.1,3.6l0,1l0,1.1
		c0.1,0.8,0.1,1.3,0.1,1.6c0,0.4,0,0.8,0,1.2c0,0.5,0,0.8,0,1v0.2c0,0.7-0.1,1.1-0.2,1.3c-0.1,0.2-0.4,0.3-0.7,0.5l-2.3,0.3l0,1.4
		c0.2,0,0.7,0,1.3-0.1c0.6-0.1,1.3-0.1,1.9-0.1c2.3,0,4.2,0,5.6,0.1c0.4,0,0.7,0,0.9,0c0.2,0,0.5,0,0.8,0l0-1.1
		c-0.2-0.1-0.5-0.2-0.9-0.2C136,33.6,135.3,33.4,134.9,33.2z"/>
	<path class="st0" d="M132.7,12.1c0.5,0,0.9-0.1,1.4-0.4c0.5-0.3,0.8-0.7,1-1.2c0.2-0.5,0.3-1,0.3-1.5c0-0.7-0.3-1.3-0.8-1.8
		c-0.5-0.5-1.2-0.8-2-0.8c-0.8,0-1.4,0.2-1.8,0.8c-0.5,0.5-0.7,1.1-0.7,1.9c0,0.8,0.3,1.5,0.8,2.1C131.5,11.8,132.1,12.1,132.7,12.1
		z"/>
	<path class="st0" d="M146.8,31.7c-0.2,0.1-0.3,0.2-0.4,0.3c-0.4,0.3-0.7,0.6-0.9,0.6c-0.2,0.1-0.5,0.1-0.8,0.1
		c-0.4,0-0.7-0.1-1-0.2c-0.2-0.4-0.4-0.7-0.5-1.1c-0.1-0.4-0.1-1.4-0.1-3l0-8.3l1-0.1l0.4,0h1.1c0.3,0.1,0.5,0.1,0.7,0.1
		c0.2,0,0.6,0,1-0.1c0.1-0.5,0.1-0.8,0.1-1.2c0-0.3,0-0.7-0.1-1c-0.9,0-1.4,0-1.5,0c-1.2,0.1-1.9,0.1-1.9,0.1l-0.5,0
		c0-0.3,0-0.4,0-0.5l0.1-1.3c0-0.4,0-1,0-1.8c0-0.4-0.1-0.8-0.2-1.2h-1.1c-0.8,1.6-1.6,2.7-2.3,3.4c-0.7,0.7-1.9,1.4-3.5,2.1
		c0,0.6,0,0.9,0,1c0,0.1,0,0.2,0.1,0.4l0.3,0.1l1.5,0l0.6,0v6.2l-0.1,3.8c0,1.8,0.4,3.1,1.2,4c0.8,0.9,1.8,1.3,3.1,1.3
		c1,0,1.9-0.2,2.8-0.7c0.9-0.5,1.5-1.1,2-1.9l-0.1-0.3C147.4,32.2,147.1,31.9,146.8,31.7z"/>
	<path class="st0" d="M165.6,31.4l-0.5-0.3l-0.4,0.2l-0.6,1c-0.1,0.1-0.2,0.1-0.4,0.1c-0.2,0-0.4-0.1-0.6-0.3
		c-0.2-0.2-0.2-0.6-0.2-1.3v-0.7l0-2.6l0-3.6c0-2.2-0.2-3.7-0.5-4.6c-0.3-0.8-0.9-1.5-1.6-1.9c-0.8-0.4-1.7-0.6-2.8-0.6
		c-1.7,0-3.1,0.2-4.3,0.6c-0.9,0.3-1.8,0.9-2.8,1.7c-1,0.8-1.7,1.6-2.2,2.5c-0.3,0.6-0.5,1.3-0.5,2.1c0,0.3,0.1,0.6,0.3,0.7
		c0.4,0,1-0.2,1.8-0.6c0.2-0.1,0.6-0.3,1.1-0.5c0.5-0.2,0.9-0.5,1.1-0.7c0.1-0.1,0.2-0.5,0.3-1.1c0.1-0.9,0.3-1.5,0.5-1.8
		c0.3-0.4,0.7-0.8,1.2-1.1c0.6-0.3,1.2-0.4,1.9-0.4c0.7,0,1.2,0.2,1.4,0.7c0.5,0.7,0.7,2,0.7,4c0,0.6,0,1.1-0.1,1.7l-5.1,2.2
		c-0.9,0.4-1.4,0.7-1.5,0.7c-1,0.6-1.7,1.1-2.1,1.6c-0.4,0.5-0.8,1-1,1.5c-0.2,0.5-0.3,1-0.3,1.5c0,1,0.3,1.9,1,2.5
		c0.7,0.6,1.7,0.9,3.1,0.9c1.5,0,2.8-0.3,3.9-0.8c1.1-0.6,1.9-1.4,2.5-2.5c0.5,1.2,1,2,1.6,2.5c0.6,0.5,1.3,0.7,2.1,0.7
		c0.8,0,1.4-0.2,2-0.7c0.5-0.5,1-1.4,1.3-2.7l0-0.1C165.8,31.6,165.7,31.5,165.6,31.4z M158.4,31c-0.1,0.4-0.5,0.9-1.3,1.5
		c-0.5,0.5-1.2,0.7-1.9,0.7c-0.5,0-0.9-0.2-1.2-0.6c-0.3-0.4-0.5-0.9-0.5-1.5c0-0.7,0.1-1.3,0.4-1.8c0.4-0.7,1.1-1.3,2-1.9
		c1-0.6,1.8-1.1,2.6-1.4c0.1,0.6,0.1,1.3,0.1,1.9C158.5,29.6,158.5,30.6,158.4,31z"/>
	<path class="st0" d="M179.3,26.8c-0.5-0.8-1.4-1.5-2.6-2.2c-0.8-0.4-2.2-0.8-3.9-1.3c-1.2-0.3-2-0.6-2.5-1.2
		c-0.5-0.5-0.7-1-0.7-1.5c0-0.7,0.2-1.3,0.7-1.7c0.6-0.6,1.4-0.9,2.4-0.9c0.9,0,1.7,0.3,2.4,0.8c0.7,0.5,1.4,1.4,2,2.7
		c0.2,0.4,0.4,0.7,0.5,0.9c0.3,0,0.5,0,0.6,0c0.2,0,0.5,0,0.9-0.2c0-0.1,0.1-0.2,0.1-0.3c0-0.2-0.1-0.9-0.2-2.1
		c-0.2-1.2-0.3-2-0.4-2.3c-0.7-0.4-1.5-0.7-2.5-0.9c-1-0.2-2.1-0.3-3.4-0.3c-0.9,0-1.8,0.2-2.6,0.5c-0.8,0.3-1.4,0.7-1.8,1.1
		c-0.5,0.5-1,1.2-1.3,1.9c-0.3,0.7-0.4,1.6-0.4,2.7c0,0.6,0.2,1.3,0.5,2.1c0.3,0.6,0.6,1.1,1.1,1.6c0.5,0.5,1.1,0.8,1.7,1.1
		c0.3,0.1,1.1,0.4,2.5,0.7c1.4,0.4,2.2,0.6,2.6,0.8c0.7,0.3,1.2,0.6,1.4,1c0.2,0.3,0.3,0.7,0.3,1.2c0,0.7-0.3,1.3-0.9,1.9
		c-0.6,0.6-1.4,0.9-2.2,0.9c-0.5,0-1-0.1-1.4-0.3c-0.7-0.2-1.2-0.5-1.5-0.7c-0.5-0.4-0.9-0.8-1.4-1.4c-0.2-0.3-0.7-1.1-1.5-2.5
		l-0.2-0.2c-0.2,0-0.3,0-0.4,0c-0.2,0-0.5,0-0.9,0.1c0,0.4,0.1,1.4,0.4,3.2c0.1,1.1,0.2,1.7,0.3,1.8c0.1,0.1,0.2,0.2,0.3,0.3
		c0.8,0.4,1.3,0.6,1.5,0.6c0.8,0.2,1.4,0.4,2,0.4c1.3,0.1,2,0.2,2.3,0.2c2.3,0,4-0.6,5.2-1.7c1.2-1.1,1.8-2.5,1.8-4.2
		C180,28.6,179.7,27.6,179.3,26.8z"/>
	<polygon class="st0" points="78.6,41.9 68.8,41.9 68.8,42.9 73.1,42.9 73.1,53.6 74.3,53.6 74.3,42.9 78.6,42.9 	"/>
	<path class="st0" d="M81.6,45c-1.9,0-3.1,0.9-3.1,0.9l0.5,0.9c0,0,1-0.8,2.4-0.8c1.2,0,2.2,0.5,2.2,2.2v0.2h-0.5
		c-1.5,0-5.3,0.1-5.3,2.9c0,1.7,1.5,2.5,2.9,2.5c2.2,0,2.9-1.8,2.9-1.8h0c0,0,0,0.3,0,0.7v0.9h1.1v-5.4C84.8,46.1,83.7,45,81.6,45z
		 M83.7,49.7c0,1.4-1,3.1-2.6,3.1c-1.3,0-1.9-0.8-1.9-1.6c0-1.8,2.7-1.9,4.1-1.9h0.5V49.7z"/>
	<path class="st0" d="M88.7,47.4L88.7,47.4c0,0,0-0.3,0-0.7v-1.5h-1.2v8.4h1.2v-3.5c0-0.5,0.1-1.1,0.2-1.6c0.4-1.2,1.3-2.2,2.5-2.2
		c0.2,0,0.4,0,0.4,0v-1.1c0,0-0.2,0-0.5,0C90.1,45.1,89.1,46.1,88.7,47.4z"/>
	<path class="st0" d="M96.8,51.4c-0.2,0.4-0.3,1-0.3,1h0c0,0-0.1-0.6-0.3-1l-2.4-6.1h-1.2l3.3,8.4h1.3l3.3-8.4h-1.2L96.8,51.4z"/>
	<rect x="102" y="45.2" class="st0" width="1.2" height="8.4"/>
	<rect x="102" y="41.9" class="st0" width="1.2" height="1.4"/>
	<path class="st0" d="M106.8,47.3c0-0.9,0.8-1.3,1.7-1.3c1.4,0,2.2,0.8,2.2,0.8l0.5-0.9c0,0-0.8-0.9-2.7-0.9c-1.6,0-3,0.8-3,2.3
		c0,2.7,4.7,2.3,4.7,4.1c0,0.9-0.8,1.3-1.7,1.3c-1.6,0-2.6-1-2.6-1l-0.6,0.8c0,0,1.1,1.2,3.2,1.2c1.7,0,3-1,3-2.3
		C111.4,48.7,106.8,49.2,106.8,47.3z"/>
	<rect x="113.6" y="41.9" class="st0" width="1.2" height="1.4"/>
	<rect x="113.6" y="45.2" class="st0" width="1.2" height="8.4"/>
	<path class="st0" d="M122.2,45c-2,0-3.1,1.3-3.5,2.1h0c0,0,0-0.3,0-0.7v-1.2h-1.2v8.4h1.2v-4c0-0.4,0-0.8,0.1-1.1
		c0.4-1.4,1.7-2.4,3.1-2.4c1.7,0,1.9,1.2,1.9,2.5v5h1.2v-5.3C125.1,46.2,124.3,45,122.2,45z"/>
	<path class="st0" d="M130.8,45c-1.9,0-3.1,0.9-3.1,0.9l0.6,0.9c0,0,1-0.8,2.4-0.8c1.2,0,2.2,0.5,2.2,2.2v0.2h-0.5
		c-1.5,0-5.3,0.1-5.3,2.9c0,1.7,1.5,2.5,2.9,2.5c2.2,0,2.9-1.8,2.9-1.8h0c0,0,0,0.3,0,0.7v0.9h1.1v-5.4C134,46.1,132.9,45,130.8,45z
		 M132.9,49.7c0,1.4-1,3.1-2.7,3.1c-1.3,0-1.9-0.8-1.9-1.6c0-1.8,2.7-1.9,4.1-1.9h0.5V49.7z"/>
</g>
</svg>
