<?xml version="1.0" encoding="utf-8"?>
<!-- Generator: Adobe Illustrator 24.1.0, SVG Export Plug-In . SVG Version: 6.00 Build 0)  -->
<svg version="1.1" id="Layer_1" xmlns="http://www.w3.org/2000/svg" xmlns:xlink="http://www.w3.org/1999/xlink" x="0px" y="0px"
	 viewBox="0 0 144 60" style="enable-background:new 0 0 144 60;" xml:space="preserve">
<style type="text/css">
	.st0{fill:#F0EFEF;}
</style>
<g>
	<polygon class="st0" points="88.9,25.8 86.8,25.8 86.8,21.4 85.5,21.4 85.5,26.9 88.9,26.9 	"/>
	<path class="st0" d="M91.1,25.7h2.1l0.4,1.2H95l-2-5.5h-1.6l-2,5.5h1.3L91.1,25.7z M91.7,24c0.3-0.9,0.5-1.6,0.5-1.6h0
		c0,0,0.1,0.7,0.4,1.6l0.2,0.6h-1.4L91.7,24z"/>
	<polygon class="st0" points="101.6,25.8 99.2,25.8 99.2,24.6 101.3,24.6 101.3,23.6 99.2,23.6 99.2,22.5 101.6,22.5 101.6,21.4 
		97.9,21.4 97.9,26.9 101.6,26.9 	"/>
	<path class="st0" d="M104.4,26c-0.5,0-0.9-0.3-1-0.9l-1.2,0.5c0.3,1,1,1.3,2.1,1.3c1.2,0,2.2-0.4,2.2-1.6c0-1.1-0.6-1.5-1.8-1.8
		c-0.6-0.2-0.9-0.3-0.9-0.7c0-0.4,0.3-0.5,0.6-0.5c0.4,0,0.8,0.2,0.8,0.7l1.3-0.3c-0.1-1-1-1.4-2.1-1.4c-1,0-1.9,0.4-1.9,1.7
		c0,0.9,0.5,1.4,1.8,1.8c0.7,0.2,0.9,0.4,0.9,0.7C105.1,25.9,104.8,26,104.4,26z"/>
	<path class="st0" d="M109.1,26c-0.5,0-0.9-0.3-1-0.9l-1.2,0.5c0.3,1,1,1.3,2.1,1.3c1.2,0,2.2-0.4,2.2-1.6c0-1.1-0.6-1.5-1.8-1.8
		c-0.7-0.2-1-0.3-1-0.7c0-0.4,0.3-0.5,0.6-0.5c0.4,0,0.8,0.2,0.8,0.7l1.3-0.3c-0.1-1-1-1.4-2.1-1.4c-1,0-1.9,0.4-1.9,1.7
		c0,0.9,0.5,1.4,1.8,1.8c0.7,0.2,0.9,0.4,0.9,0.7C109.9,25.9,109.6,26,109.1,26z"/>
	<polygon class="st0" points="115.7,25.8 113.3,25.8 113.3,24.6 115.4,24.6 115.4,23.6 113.3,23.6 113.3,22.5 115.7,22.5 
		115.7,21.4 112,21.4 112,26.9 115.7,26.9 	"/>
	<rect x="85.5" y="35.2" class="st0" width="0.7" height="5.2"/>
	<path class="st0" d="M89,37.3l2.2,3.1h0.7v-5.2h-0.7v3c0,0.7,0,1.2,0,1.2h0c0,0-0.3-0.6-0.6-1.1l-2.1-3.1h-0.7v5.2h0.7v-3
		c0-0.7-0.1-1.2-0.1-1.2h0C88.4,36.2,88.7,36.8,89,37.3z"/>
	<path class="st0" d="M96.3,38.3l-2.1-3.1h-0.7v5.2h0.7v-3c0-0.7-0.1-1.2-0.1-1.2h0c0,0,0.3,0.6,0.6,1.1l2.2,3.1h0.7v-5.2h-0.7v3
		c0,0.7,0,1.2,0,1.2h0C96.9,39.4,96.6,38.8,96.3,38.3z"/>
	<path class="st0" d="M98.8,37.8c0,1.7,0.9,2.7,2.3,2.7c1.4,0,2.3-1,2.3-2.7c0-1.7-0.9-2.7-2.3-2.7C99.7,35.1,98.8,36.1,98.8,37.8z
		 M102.7,37.8c0,1.3-0.6,2.1-1.6,2.1c-1,0-1.6-0.8-1.6-2.1c0-1.3,0.6-2.1,1.6-2.1C102.1,35.7,102.7,36.5,102.7,37.8z"/>
	<path class="st0" d="M106.4,38.7c-0.3,0.8-0.3,1.3-0.3,1.3h0c0,0-0.1-0.5-0.3-1.3l-1.1-3.5h-0.7l1.7,5.2h0.9l1.7-5.2h-0.7
		L106.4,38.7z"/>
	<path class="st0" d="M109.4,38.9h2.2l0.5,1.5h0.7l-1.9-5.2H110l-1.9,5.2h0.7L109.4,38.9z M110,36.9c0.3-0.8,0.4-1.3,0.4-1.3h0
		c0,0,0.1,0.5,0.4,1.3l0.5,1.4h-1.8L110,36.9z"/>
	<path class="st0" d="M116.9,39.8h-2.1c-0.6,0-0.8,0-0.8,0v0c0,0,0.2-0.2,0.5-0.6l2.3-3.5v-0.4h-3.6v0.6h1.9c0.6,0,0.8,0,0.8,0v0
		c0,0-0.2,0.2-0.5,0.6l-2.4,3.6v0.4h3.8V39.8z"/>
	<rect x="117.8" y="35.2" class="st0" width="0.7" height="5.2"/>
	<path class="st0" d="M122,40.5c1.4,0,2.3-1,2.3-2.7c0-1.7-0.9-2.7-2.3-2.7c-1.4,0-2.3,1-2.3,2.7C119.6,39.5,120.6,40.5,122,40.5z
		 M122,35.7c1,0,1.6,0.8,1.6,2.1c0,1.3-0.6,2.1-1.6,2.1c-1,0-1.6-0.8-1.6-2.1C120.4,36.5,120.9,35.7,122,35.7z"/>
	<path class="st0" d="M129.5,35.2h-0.7v3c0,0.7,0,1.2,0,1.2h0c0,0-0.3-0.6-0.6-1.1l-2.1-3.1h-0.7v5.2h0.7v-3c0-0.7-0.1-1.2-0.1-1.2
		h0c0,0,0.3,0.6,0.6,1.1l2.2,3.1h0.7V35.2z"/>
	<polygon class="st0" points="134.2,39.8 131.7,39.8 131.7,38.1 133.9,38.1 133.9,37.5 131.7,37.5 131.7,35.8 134.2,35.8 
		134.2,35.2 131,35.2 131,40.4 134.2,40.4 	"/>
	<path class="st0" d="M85.5,49.8h0.7v-2h0.9c1.2,0,1.8-0.7,1.8-1.7c0-1-0.6-1.5-1.8-1.5h-1.5V49.8z M86.2,45.1H87
		c0.7,0,1.1,0.4,1.1,1c0,0.6-0.2,1.1-1.1,1.1h-0.8V45.1z"/>
	<path class="st0" d="M92.3,48.2l0.5,1.5h0.7l-1.9-5.2h-0.9l-1.9,5.2h0.7l0.5-1.5H92.3z M90.8,46.3c0.3-0.8,0.4-1.3,0.4-1.3h0
		c0,0,0.1,0.5,0.4,1.3l0.5,1.4h-1.8L90.8,46.3z"/>
	<path class="st0" d="M96.9,48.4l0.2,0.9c0,0.2,0.1,0.3,0.2,0.5h0.8c-0.1-0.1-0.2-0.3-0.3-0.5l-0.3-1c-0.2-0.6-0.4-0.8-0.9-0.9v0
		c0.6,0,1.2-0.5,1.2-1.3c0-0.9-0.5-1.5-1.7-1.5h-1.7v5.2h0.7v-2.2h0.8C96.4,47.6,96.8,47.7,96.9,48.4z M95.1,45.1h1
		c0.7,0,1,0.3,1,0.9c0,0.6-0.3,0.9-1,0.9h-1V45.1z"/>
	<polygon class="st0" points="102.2,44.6 98.4,44.6 98.4,45.2 100,45.2 100,49.8 100.6,49.8 100.6,45.2 102.2,45.2 	"/>
	<polygon class="st0" points="103.1,49.8 106.2,49.8 106.2,49.2 103.7,49.2 103.7,47.5 105.9,47.5 105.9,46.9 103.7,46.9 
		103.7,45.2 106.2,45.2 106.2,44.6 103.1,44.6 	"/>
	<path class="st0" d="M111.3,48.8l-0.5-0.4c-0.4,0.6-0.8,0.8-1.5,0.8c-1,0-1.6-0.8-1.6-2.1c0-1.3,0.6-2.1,1.6-2.1
		c0.6,0,1.1,0.3,1.3,1l0.6-0.3c-0.4-0.8-1-1.2-1.9-1.2c-1.4,0-2.4,1-2.4,2.7c0,1.7,0.9,2.7,2.3,2.7
		C110.3,49.9,110.9,49.6,111.3,48.8z"/>
	<rect x="112.3" y="44.6" class="st0" width="0.7" height="5.2"/>
	<path class="st0" d="M114.5,44.6v5.2h0.7v-2h0.9c1.2,0,1.8-0.7,1.8-1.7c0-1-0.6-1.5-1.8-1.5H114.5z M117.1,46.2
		c0,0.6-0.2,1.1-1.1,1.1h-0.8v-2.1h0.8C116.7,45.1,117.1,45.5,117.1,46.2z"/>
	<path class="st0" d="M121.8,49.8h0.7l-1.9-5.2h-0.9l-1.9,5.2h0.7l0.5-1.5h2.2L121.8,49.8z M119.3,47.7l0.5-1.4
		c0.3-0.8,0.4-1.3,0.4-1.3h0c0,0,0.1,0.5,0.4,1.3l0.5,1.4H119.3z"/>
	<path class="st0" d="M126.6,49.2h-2.1c-0.6,0-0.8,0-0.8,0v0c0,0,0.2-0.2,0.5-0.6l2.3-3.5v-0.4H123v0.6h1.9c0.6,0,0.8,0,0.8,0v0
		c0,0-0.2,0.2-0.5,0.6l-2.4,3.6v0.4h3.8V49.2z"/>
	<rect x="127.5" y="44.6" class="st0" width="0.7" height="5.2"/>
	<path class="st0" d="M131.7,49.9c1.4,0,2.3-1,2.3-2.7c0-1.7-0.9-2.7-2.3-2.7c-1.4,0-2.3,1-2.3,2.7
		C129.4,48.9,130.3,49.9,131.7,49.9z M131.7,45.1c1,0,1.6,0.8,1.6,2.1c0,1.3-0.6,2.1-1.6,2.1c-1,0-1.6-0.8-1.6-2.1
		C130.1,45.9,130.7,45.1,131.7,45.1z"/>
	<path class="st0" d="M138.7,47.5c0,0.7,0,1.2,0,1.2h0c0,0-0.3-0.6-0.6-1.1l-2.1-3.1h-0.7v5.2h0.7v-3c0-0.7-0.1-1.2-0.1-1.2h0
		c0,0,0.3,0.6,0.6,1.1l2.2,3.1h0.7v-5.2h-0.7V47.5z"/>
	<polygon class="st0" points="144,45.2 144,44.6 140.9,44.6 140.9,49.8 144,49.8 144,49.2 141.6,49.2 141.6,47.5 143.7,47.5 
		143.7,46.9 141.6,46.9 141.6,45.2 	"/>
	<path class="st0" d="M87.5,54.4c0.6,0,1.1,0.3,1.3,1l0.6-0.3c-0.4-0.8-1-1.2-1.9-1.2c-1.4,0-2.4,1-2.4,2.7c0,1.7,0.9,2.7,2.3,2.7
		c1,0,1.6-0.3,2.1-1L89,57.8c-0.4,0.6-0.8,0.8-1.5,0.8c-1,0-1.6-0.8-1.6-2.1C85.9,55.2,86.5,54.4,87.5,54.4z"/>
	<path class="st0" d="M91.7,53.9l-1.9,5.2h0.7l0.5-1.5h2.2l0.5,1.5h0.7l-1.9-5.2H91.7z M91.2,57l0.5-1.4c0.3-0.8,0.4-1.3,0.4-1.3h0
		c0,0,0.1,0.5,0.4,1.3L93,57H91.2z"/>
	<path class="st0" d="M98.1,56.6c-0.2,0.4-0.2,0.6-0.2,0.6h0c0,0-0.1-0.2-0.2-0.6l-1.3-2.6h-0.9v5.2h0.7v-3.3c0-0.6,0-1,0-1h0
		c0,0,0.1,0.3,0.4,0.9l1.1,2H98l1.1-2c0.3-0.6,0.4-0.9,0.4-0.9h0c0,0,0,0.3,0,1v3.3h0.7v-5.2h-0.8L98.1,56.6z"/>
	<path class="st0" d="M103.9,56.5L103.9,56.5c0.6-0.1,1-0.5,1-1.2c0-0.9-0.6-1.3-1.6-1.3h-1.6v5.2h1.6c1.3,0,1.8-0.6,1.8-1.5
		C105.1,56.9,104.6,56.5,103.9,56.5z M102.4,54.5h0.8c0.6,0,1,0.3,1,0.9c0,0.6-0.4,0.9-1,0.9h-0.8V54.5z M103.3,58.6h-1v-1.7h0.9
		c0.8,0,1.1,0.3,1.1,0.8C104.4,58.3,104,58.6,103.3,58.6z"/>
	<rect x="106.3" y="53.9" class="st0" width="0.7" height="5.2"/>
	<path class="st0" d="M109.7,53.9l-1.9,5.2h0.7l0.5-1.5h2.2l0.5,1.5h0.7l-1.9-5.2H109.7z M109.2,57l0.5-1.4c0.3-0.8,0.4-1.3,0.4-1.3
		h0c0,0,0.1,0.5,0.4,1.3L111,57H109.2z"/>
	<path class="st0" d="M116.1,56.6c-0.2,0.4-0.2,0.6-0.2,0.6h0c0,0-0.1-0.2-0.2-0.6l-1.3-2.6h-0.9v5.2h0.7v-3.3c0-0.6,0-1,0-1h0
		c0,0,0.1,0.3,0.4,0.9l1.1,2h0.5l1.1-2c0.3-0.6,0.4-0.9,0.4-0.9h0c0,0,0,0.3,0,1v3.3h0.7v-5.2h-0.8L116.1,56.6z"/>
	<polygon class="st0" points="119.7,59.1 122.8,59.1 122.8,58.5 120.4,58.5 120.4,56.8 122.6,56.8 122.6,56.2 120.4,56.2 
		120.4,54.5 122.8,54.5 122.8,53.9 119.7,53.9 	"/>
	<path class="st0" d="M127.5,56.9c0,0.7,0,1.2,0,1.2h0c0,0-0.3-0.6-0.6-1.1l-2.1-3.1H124v5.2h0.7v-3c0-0.7-0.1-1.2-0.1-1.2h0
		c0,0,0.3,0.6,0.6,1.1l2.2,3.1h0.7v-5.2h-0.7V56.9z"/>
	<polygon class="st0" points="129.1,54.5 130.6,54.5 130.6,59.1 131.3,59.1 131.3,54.5 132.9,54.5 132.9,53.9 129.1,53.9 	"/>
	<path class="st0" d="M135.5,53.8c-1.4,0-2.3,1-2.3,2.7c0,1.7,0.9,2.7,2.3,2.7c1.4,0,2.3-1,2.3-2.7
		C137.8,54.8,136.9,53.8,135.5,53.8z M135.5,58.7c-1,0-1.6-0.8-1.6-2.1s0.6-2.1,1.6-2.1c1,0,1.6,0.8,1.6,2.1S136.5,58.7,135.5,58.7z
		"/>
	<path class="st0" d="M41.5,0.1L39.7,0l-0.4,1.7C39.2,2,30.4,34.9,12.4,38.4c-4,0.5-5.9,0.1-6.8-0.5c0.8-0.6,1.3-1.6,1.3-2.7
		c0-1.8-1.5-3.3-3.4-3.3c-1.6,0-2.9,1-3.3,2.5l0,0c-0.1,0.3-0.9,3.4,1.3,5.9c2.1,2.4,5.9,3.2,11.5,2.4l0.1,0
		c18.4-3.5,27.8-30.9,29.9-38.2c7.6,0.6,14.6,4,19.8,9.5c5.6,5.9,8.6,13.6,8.3,21.7C70.9,47,61.2,56,49.6,55.6
		c-3.7-0.1-7.2-1.7-9.8-4.3c-2.6-2.7-3.9-6.2-3.8-9.8c0.2-4.9,4.4-8.8,9.4-8.7c1.5,0.1,3,0.7,4,1.8c1,1.1,1.6,2.5,1.5,4
		c-0.1,1.8-1.6,3.2-3.5,3.2c0,0-0.1,0-0.1,0c1.4-0.4,2.4-1.7,2.4-3.2c0-1.8-1.5-3.3-3.4-3.3c-0.1,0-0.2,0-0.4,0
		c-2.5,0.2-4.5,2.2-4.6,4.7c-0.1,3.3,2.5,6.1,5.9,6.2c4.3,0.1,7.9-3.2,8-7.4c0.1-2.7-0.9-5.2-2.7-7.1c-1.9-2-4.4-3.1-7.1-3.2
		c-7.5-0.2-13.7,5.6-14,12.9c-0.2,4.8,1.6,9.5,5,13c3.4,3.5,7.9,5.5,12.8,5.7c0.3,0,0.5,0,0.8,0c13.6,0,24.9-10.7,25.3-24.2
		c0.3-9.3-3.1-18.1-9.5-24.9C59.6,4.2,50.9,0.3,41.5,0.1z"/>
</g>
</svg>
